<?xml version="1.0" encoding="utf-8"?>
<!-- Generator: Adobe Illustrator 24.0.1, SVG Export Plug-In . SVG Version: 6.00 Build 0)  -->
<svg version="1.1" id="Capa_1" xmlns="http://www.w3.org/2000/svg" xmlns:xlink="http://www.w3.org/1999/xlink" x="0px" y="0px"
	 viewBox="0 0 294.98 280.28" style="enable-background:new 0 0 294.98 280.28;" xml:space="preserve">
<g>
	<path d="M217.09,129.29c1.41,2.8,2.68,5.33,3.98,7.85c1.22,2.37,2.47,4.72,3.69,7.09c0.64,1.24,1.25,2.51,1.87,3.76
		c1.45,2.92,2.91,5.82,4.33,8.75c1.14,2.36,2.23,4.74,3.34,7.12c1.16,2.49,2.26,5.02,3.5,7.48c1.13,2.24,2.47,4.37,3.62,6.59
		c0.8,1.56,1.39,3.23,2.16,4.8c1.14,2.33,2.38,4.61,3.51,6.94c0.83,1.7,1.51,3.48,2.33,5.19c0.64,1.33,1.45,2.57,2.1,3.89
		c0.76,1.56,1.18,2.8,1.39,3.38c1.53,4.28,3.1,8.54,4.64,12.81c2.8,7.74,3.46,6.91,6.35,14.82c0.68,1.85,1.63,4.88,3.53,10.94
		c1.73,5.5,3.17,10.31,6.71,14.74c1.78,2.22,2.93,2.91,3.97,3.26c2.99,1.01,5.03-0.81,6.56,0.53c0.84,0.73,0.98,2.23,1.26,5.24
		c0.13,1.38,0.11,2.35,0.09,3.18c-0.07,2.84-0.11,4.31-1.03,4.88c-0.28,0.18-0.42,0.13-2.68,0.12c-0.83-0.01-1.67,0.01-2.5,0
		c0,0,0,0-4.71,0c-3.15,0-6.29,0-9.44,0c-7.61,0-11.41,0-11.41,0c-0.32,0.02-1.7,0.1-3.53,0c-1.11-0.06-1.66-0.1-1.88-0.18
		c-2.54-0.89-1.82-6.8-4.24-13.12c-0.1-0.27-0.5-1.29-1.04-2.58c-0.85-2.02-1.37-3-2.11-4.71c-1.01-2.32-1.99-4.65-3.01-6.96
		c-1-2.25-0.97-2.01-2-4.25c-2.1-4.59-2.27-5.55-3.72-8.61c-1.64-3.46-1.56-2.52-3.64-6.71c-2.09-4.22-2.96-5.05-4.35-9.04
		c-0.45-1.3-1.48-2.39-2.1-3.65c-0.98-2-1.79-4.08-2.75-6.09c-1.19-2.52-2.47-5-3.67-7.52c-0.77-1.62-1.41-3.31-2.21-4.93
		c-0.6-1.23-1.41-2.35-2.03-3.57c-0.63-1.23-1.14-2.53-1.73-3.79c-0.92-1.95-1.86-3.89-2.78-5.84c-0.23-0.5-0.41-1.02-0.63-1.52
		c-1.2-2.65-2.42-5.29-3.61-7.95c-1-2.23-1.92-4.51-2.98-6.72c-0.71-1.47-1.68-2.81-2.38-4.28c-1.21-2.54-2.26-5.16-3.45-7.71
		c-0.79-1.68-1.73-3.29-2.55-4.96c-0.81-1.66-1.52-3.37-2.34-5.03c-0.63-1.27-1.39-2.47-2.02-3.73c-0.23-0.46-0.15-1.07-0.39-1.53
		c-0.87-1.7-1.84-3.34-2.72-5.04c-0.74-1.45-1.43-2.92-2.09-4.41c-0.92-2.05-1.78-4.12-2.68-6.17c-0.39-0.89-0.79-1.77-1.23-2.63
		c-0.14-0.28-0.37-0.6-0.64-0.73c-1.89-0.88-3.81-1.67-5.69-2.58c-0.35-0.17-0.51-0.73-0.63-1.25c0.6-0.24,1.45-0.45,2.3-0.17
		c0.47,0.15,0.55,0.32,1.09,0.62c1.13,0.63,1.43,0.36,3.09,0.77c0.83,0.2,1.64,0.5,2.48,0.69c0.27,0.06,0.47-0.13,0.9-0.15
		c0.6-0.03,0.74,0.11,1.43,0.12c0.51,0.01,0.51-0.06,1.14-0.08c0.68-0.01,0.91,0.16,1.28,0.07c0.65-0.14,1.26-0.57,1.91-0.63
		c2.92-0.26,5.87-0.25,8.76-0.68c2.12-0.32,4.17-1.16,6.25-1.79c1.8-0.54,3.62-1.01,5.37-1.68c1.3-0.5,2.47-1.31,3.72-1.95
		c0.4-0.21,0.9-0.24,1.27-0.49c2.58-1.75,5.27-3.42,7.16-5.92c0.81-1.06,1.02-2.6,1.41-3.94c0.38-1.31,0.68-2.64,0.97-3.97
		c0.2-0.91,0.26-1.85,0.51-2.75c0.13-0.47,0.6-1.26,0.82-1.23c1.56,0.23,2.15-1.09,2.87-1.89c1.17-1.29,2.04-2.87,2.94-4.39
		c0.21-0.35,0.03-0.94,0.03-1.3c-1.38-0.67-2.66-1.3-3.95-1.9c-1.43-0.66-2.87-1.3-4.31-1.95c-0.13-0.06-0.29-0.11-0.35-0.21
		c-1.2-2.12-2.35-4.28-3.59-6.38c-0.65-1.1-1.45-2.1-2.19-3.15c-1.04-1.48-2.04-2.97-3.13-4.41c-0.51-0.68-1.16-1.26-1.76-1.87
		c-2.05-2.09-4.06-4.23-6.17-6.25c-1.98-1.89-4.2-3.46-6.73-4.59c-2.13-0.95-4.22-1.99-6.27-3.1c-0.71-0.38-1.32-1.02-1.81-1.67
		c-0.21-0.29-0.13-0.95,0.04-1.35c0.54-1.21,1.07-2.44,1.8-3.53c2.09-3.11,1.35-6.6,1.35-9.95c0-1.22-0.74-2.44-1.12-3.66
		c-0.21-0.68-0.3-1.39-0.56-2.04c-1.27-3.22-3.7-5.56-6.27-7.7c-1.16-0.97-2.73-1.42-4.05-2.22c-1.98-1.2-3.83-1.33-4.95-1.59
		c-2.47-0.57-4.36-1.01-6.85-0.79c-1.82,0.16-3.18,0.61-5.01,1.21c-1.21,0.4-2.59,0.88-4.29,1.8c-1.26,0.68-2.46,1.52-3.54,2.46
		c-1.45,1.26-2.97,2.52-4.05,4.07c-1.03,1.47-1.54,3.3-2.28,4.97c-0.24,0.54-0.52,1.06-0.66,1.62c-0.13,0.54-0.33,1.24-0.11,1.66
		c1.09,1.99,2.58,3.01,3.35,5.65c0.14,0.49,0.29,1.26,0.18,2.31c-0.33,0.16-0.8,0.32-1.23,0.15c-0.64-0.25-0.87-1.09-0.94-1.35
		c-0.86-3.5-3.36-5.77-5.79-8.1c-1.42-1.36-2.84-2.75-4.46-3.83c-1.23-0.83-2.75-1.26-4.18-1.74c-2.17-0.73-3.24-1.12-4.83-1.31
		c-2.86-0.35-5.13,0.15-6.16,0.39c-1.17,0.27-1.98,0.57-2.89,0.91c-1.42,0.53-3.95,1.28-6.54,3.33c-1.59,1.26-3.17,2.57-4.53,4.06
		c-0.97,1.06-1.6,2.44-2.35,3.7c-0.72,1.21-1.45,2.42-2.09,3.68c-0.29,0.57-0.38,1.25-0.53,1.88c-0.4,1.66-0.96,3.31-1.12,5
		c-0.2,2.07,0.06,4.18-0.09,6.26c-0.16,2.3,0.68,4.34,1.41,6.4c0.72,2.04,1.43,4.15,2.6,5.94c1.24,1.91,3.02,3.47,4.55,5.21
		c1.9,2.16,4.52,3.1,6.95,4.44c2.89,1.6,5.85,1.24,8.84,1.36c0.87,0.04,1.75-0.04,2.62-0.01c0.95,0.03,1.36,0.57,1.35,1.52
		c-0.01,0.99-0.71,0.88-1.33,0.89c-0.96,0.02-1.91,0.01-2.84,0.01c0.65,1.72,1.07,3.43,1.91,4.9c1.72,3,0.9,6.21,0.61,9.2
		c-0.22,2.17-0.78,4.48-1.38,6.68c-0.58,2.14-1.21,4.26-1.95,6.35c-0.87,2.47-1.02,2.39-2.24,5.52c-1.29,3.3-2.06,5.32-2.7,8.1
		c-0.5,2.18-0.7,3.87-0.89,5.5c-0.39,3.35-0.44,5.92-0.46,7.2c-0.19,12.07,0.32,16.89-0.44,27.73c0,0,0,0,0,0
		c-0.92,13.31-0.43,23.94-0.43,32.31c0,9.02,0.41,18.05,0.45,27.07c0.02,4.64,0.11,9.37-0.73,13.89c-0.62,3.32-0.44,6.58-0.73,9.85
		c-0.13,1.46-0.32,2.93-0.61,4.37c-0.5,2.48-0.77,4.25-1.47,6.1c-1.14,2.98-2.78,4.83-5.32,7.71c-2,2.27-3.82,3.81-4.77,4.62
		c-1.47,1.25-3.1,2.34-4.73,3.36c-3.29,2.07-4.86,3.21-6.86,3.97c-1.01,0.38-2.26,0.72-4.75,1.4c-1.2,0.32-2.53,0.69-4.33,1.09
		c-3.6,0.8-6.28,1.15-6.92,1.23c-0.46,0.06-1.87,0.23-3.76,0.36c-2.75,0.19-5.99,0.42-10.05-0.01c-2.69-0.28-4.86-0.76-6.15-1.04
		c-0.68-0.15-2.38-0.55-5.78-1.36c-1.31-0.31-1.96-0.47-2.03-0.48c-2.43-0.65-3.57-1.27-6.66-2.52c-3.5-1.43-3.23-1.12-4.69-1.84
		c-0.89-0.44-2.22-1.16-4.76-3.02c-3.1-2.27-5.57-3.88-8.06-6.79c-1.51-1.76-3.41-3.19-5.03-4.86c-1.28-1.32-2.45-2.77-3.61-4.2
		c-1.01-1.25-2.01-2.52-2.92-3.84c-0.71-1.03-1.3-2.15-1.91-3.25c-1.87-3.38-3.08-5.47-4.56-8.34c-0.62-1.2-1.19-2.33-1.57-3.07
		c-0.68-1.35-1.02-2.03-1.37-2.75c-0.59-1.24-1.14-2.41-1.61-3.69c-0.65-1.77-0.93-3.15-1.24-4.71c-0.46-2.36-0.35-2.83-0.98-6.82
		c-0.34-2.14-0.32-1.71-0.43-2.59c-0.38-2.87-0.23-4.96,0.01-8.39c0.34-4.94,0.61-5.17,1.33-10.59c0.19-1.41,0.36-2.82,0.65-4.21
		c0.23-1.1,0.63-2.17,0.93-3.26c0.2-0.72,0.31-1.45,0.51-2.17c0.37-1.33,0.77-2.66,1.16-3.99c0.11-0.36,0.2-0.73,0.29-1.1
		c0.63-2.63,0.7-3.09,1.03-4.28c0.33-1.23,1.06-3.11,2.52-6.86c0.04-0.12,0.12-0.31,0.2-0.59c0.1-0.34,0.12-0.55,0.35-1.3
		c1.12-3.63,2.07-4.77,3.8-9.33c0.21-0.56,0.25-0.72,0.58-1.55c0.58-1.47,1.12-2.96,1.76-4.41c1.53-3.47,1.66-3.34,2.73-6
		c0.91-2.24,1.48-4.1,2.28-6.72c0.48-1.58,0.85-2.88,1.1-3.79c0.36-1.3,0.77-2.76,1.21-4.61c0.22-0.93,0.66-2.77,1.09-5.1
		c0.55-3,0.8-5.27,1.02-7.36c0.39-3.7,0.59-5.55,0.55-7.98c-0.02-1.43-0.18-3.01-0.49-6.16c-0.15-1.58-0.38-3.88-0.81-6.89
		c-0.25-1.76-0.49-3.38-0.92-5.55c-0.13-0.67-0.55-2.69-1.24-5.29c-0.64-2.42-1.22-4.21-1.64-5.5c-0.91-2.81-1.36-4.22-2.07-5.82
		c-0.9-2.02-2.05-3.92-3.11-5.87c-1.47-2.71-1.99-3.53-2.87-5.34c-0.83-1.71-1.55-3.35-1.72-5.54c-0.12-1.45-0.18-2.22,0.24-2.47
		c0.96-0.59,3.4,2.28,9.74,8.37c4.56,4.38,4.5,4.05,5.83,5.64c3.03,3.6,4.71,6.91,6.25,9.98c1.26,2.5,1.91,4.26,2.35,5.78
		c0.17,0.6,0.34,1.27,0.47,1.78c0.49,1.93,0.84,3.57,1.07,4.73c0.2,1.03,0.56,2.97,0.92,5.67c0.59,4.46,1.29,9.75,1.09,16.47
		c-0.08,2.69-0.3,4.89-0.74,9.3c-0.33,3.34-0.52,5.18-0.98,7.76c-0.46,2.57-0.63,2.74-0.94,4.94c-0.36,2.55-0.28,3.42-0.74,6.13
		c-0.23,1.34-0.39,2.32-0.77,3.67c-0.33,1.19-0.46,1.32-1.69,4.82c-0.53,1.49-0.58,1.7-1.05,2.99c-0.38,1.05-0.71,2.13-1.16,3.15
		c-0.81,1.83-1.74,3.61-2.55,5.44c-0.28,0.63-0.35,1.36-0.55,2.04c-0.53,1.83-1.05,3.67-1.62,5.49c-0.35,1.12-0.83,2.2-1.14,3.33
		c-0.63,2.3-0.79,4.83-1.87,6.88c-0.97,1.84-0.26,3.77-1.12,5.47c-0.08,0.17-0.16,0.35-0.18,0.54c-0.31,3.66-0.72,7.31-0.88,10.98
		c-0.15,3.44-0.15,6.91,0.02,10.35c0.08,1.66,0.69,3.3,1.07,4.94c0.08,0.33,0.19,0.72,0.34,1.2c0.72,2.44,1.42,3.7,2.8,6.88
		c1.26,2.88,1.06,2.72,1.64,3.79c0.75,1.37,1.69,2.64,2.55,3.95c1.07,1.62,2.13,3.25,3.25,4.84c0.43,0.62,1.01,1.14,1.53,1.7
		c1.57,1.73,3.02,3.59,4.75,5.15c1.5,1.35,3.37,2.26,4.95,3.52c0.74,0.59,1.44,1.12,2.27,1.61c2.38,1.41,4.84,2.37,7.58,2.71
		c1.48,0.19,2.96,0.9,4.39,0.77c2.44-0.22,4.92-0.7,7.24-1.48c2.04-0.69,4.07-1.71,5.78-3.01c1.51-1.14,2.61-2.84,3.82-4.35
		c2.56-3.2,3.21-3.77,3.72-4.99c0.78-1.87,0.81-3.52,0.81-4.34c0.49-76.08-0.02-96.92-0.02-96.92
		c-0.53-21.69-0.03-98.54-0.03-107.31c0-1.81-0.01-3.75-0.62-5.4c-0.97-2.63-2.19-5.13-4.76-6.89c-1.69-1.16-3.3-1.34-5.12-1.34
		c-2.77,0-5.58,0.29-8.3-0.1c-4.51-0.64-9.03-0.78-13.56-0.89c-1.04-0.03-2.15-0.13-3.1-0.52c-0.54-0.22-1.16-1.1-1.15-1.66
		c0.07-2.7,0.29-5.39,0.58-8.08c0.15-1.33,1.54-2.47,3.03-2.45c4.02,0.06,8.03,0.25,12.05,0.37c1.89,0.06,3.78,0.07,5.67,0.08
		c5.98,0.04,12.03-0.51,17.92,0.23c6.82,0.86,14.54,0.76,27.54,0.76c12.07,0,9.51-0.11,23.77-0.13c3.18,0,4.25,0,22.35,0
		c5.63,0,8.45,0,8.47,0c16.04-0.15,31.07-1.39,37.41,1.06c0.52,0.2,2.54,1.03,5.41,2c0.96,0.32,1.35,0.44,4.55,1.49
		c2.03,0.67,3.06,0.98,3.15,1.04c2.06,1.32,4.61,1.62,6.43,3.49c1,1.03,2.63,1.43,3.9,2.23c1.5,0.93,2.93,1.97,4.37,2.99
		c1.09,0.77,2.09,1.69,3.23,2.37c1.9,1.13,3.22,2.79,4.49,4.53c0.4,0.55,0.97,0.96,1.38,1.5c1.54,2.03,2.92,4.19,4.59,6.1
		c1.9,2.18,3.29,4.65,4.87,7.02c1.46,2.2,2.63,4.41,3.44,6.92c0.72,2.23,1.89,4.3,2.65,6.52c0.54,1.57,0.74,3.25,1.08,4.88
		c0.44,2.13,0.94,4.24,1.26,6.39c0.21,1.38,0.16,2.81,0.18,4.22c0.02,1.8,0.15,3.61-0.06,5.39c-0.28,2.44-0.84,4.84-1.27,7.26
		c-0.04,0.24-0.06,0.48-0.11,0.71c-0.51,2.26-0.84,4.59-1.58,6.78c-0.98,2.91-2.14,5.78-3.46,8.55c-0.96,2.02-2.3,3.85-3.49,5.76
		c-1.04,1.68-2.01,3.41-3.18,5c-1.31,1.78-2.8,3.44-4.22,5.14c-1.02,1.21-1.98,2.49-3.09,3.6c-1.92,1.92-3.94,3.74-5.92,5.61
		c-0.66,0.62-1.27,1.3-1.98,1.84c-2.24,1.71-3.82,2.95-5.57,4.11C222.61,125.55,220.23,127.14,217.09,129.29z"/>
	<path d="M251.98,264.09"/>
	<path d="M276.24,214.95"/>
</g>
</svg>
